# xmcd
#
# Track frame offsets: 
#        225
#        17710
#        40605
#        58885
#        83070
#        99072
#        122810
#        136555
#        164555
#        180800
#        198180
#        214870
#
# Disc length: 3119 seconds
#
# Revision: 0
# Processed by: cddbd v1.5.2PL0 Copyright (c) Steve Scherf et al.
# Submitted via: ExactAudioCopy v0.99pb3
#
DISCID=900c2c0c
DTITLE=Mietek Blues Band - Tribute - To - The - Blues
DYEAR=1996
DGENRE=Blues
TTITLE0=Every Day I Have The Blues - P Chatman
TTITLE1=Trouble Blues - J L Hooker
TTITLE2=Sweet Little Angel - B B King J Taub
TTITLE3=Thrill is Gone - Roy Hawkins
TTITLE4=Hey Hey - Big Bill Broonzy
TTITLE5=Sky Is Crying - E James M Robinson
TTITLE6=Further On Up The Road - J M Veasey  D D Robey
TTITLE7=Stormy Monday - T - Bone Walker
TTITLE8=Caldonia - F Moore
TTITLE9=First Time I Met The Blues - E Montgomery
TTITLE10=I Got My Mojo Working - M Waters Mc Kinley Morganfield
TTITLE11=Last Night - Walter Jacobs
EXTD=
EXTT0=
EXTT1=
EXTT2=
EXTT3=
EXTT4=
EXTT5=
EXTT6=
EXTT7=
EXTT8=
EXTT9=
EXTT10=
EXTT11=
PLAYORDER=
